<?xml version="1.0" standalone="no"?>
<!DOCTYPE svg PUBLIC "-//W3C//DTD SVG 20010904//EN"
 "http://www.w3.org/TR/2001/REC-SVG-20010904/DTD/svg10.dtd">
<svg version="1.0" xmlns="http://www.w3.org/2000/svg"
 width="512.000000pt" height="512.000000pt" viewBox="0 0 512.000000 512.000000"
 preserveAspectRatio="xMidYMid meet">

<g transform="translate(0.000000,512.000000) scale(0.100000,-0.100000)"
fill="#000000" stroke="none">
<path d="M445 5108 c-27 -5 -87 -27 -132 -49 -342 -164 -417 -623 -147 -893
270 -271 728 -195 894 148 203 419 -154 881 -615 794z"/>
<path d="M0 1760 l0 -1760 575 0 575 0 0 1760 0 1760 -575 0 -575 0 0 -1760z"/>
<path d="M1600 1760 l0 -1760 575 0 575 0 0 964 0 964 67 84 c86 108 299 319
388 386 205 152 391 199 530 133 77 -36 157 -123 208 -225 l37 -75 0 -1116 0
-1115 570 0 571 0 -4 1272 c-4 1402 1 1304 -66 1487 -100 274 -290 491 -547
623 -294 152 -610 177 -939 73 -120 -38 -328 -146 -430 -222 -90 -67 -294
-262 -353 -338 l-31 -40 -1 333 0 332 -575 0 -575 0 0 -1760z"/>
</g>
</svg>
